<svg xmlns="http://www.w3.org/2000/svg" viewBox="0 0 480 100" width="480" height="100">
  <!-- Mini hexagon icon -->
  <g transform="translate(10,5) scale(0.175)">
    <path d="M256 20 L462 148 L462 364 L256 492 L50 364 L50 148 Z" fill="#2563EB"/>
    <path d="M256 60 L422 168 L422 344 L256 452 L90 344 L90 168 Z" fill="#3B82F6"/>
    <path d="M256 140 L360 200 L256 260 L152 200 Z" fill="#93C5FD"/>
    <path d="M152 200 L256 260 L256 370 L152 310 Z" fill="#2563EB"/>
    <path d="M360 200 L256 260 L256 370 L360 310 Z" fill="#1D4ED8"/>
    <circle cx="310" cy="280" r="16" fill="#14B8A6"/>
    <circle cx="310" cy="280" r="7" fill="#FFFFFF"/>
    <line x1="310" y1="264" x2="310" y2="230" stroke="#14B8A6" stroke-width="4" stroke-linecap="round"/>
    <line x1="310" y1="230" x2="340" y2="215" stroke="#14B8A6" stroke-width="4" stroke-linecap="round"/>
    <circle cx="340" cy="215" r="6" fill="#14B8A6"/>
  </g>
  <!-- Text: Invent (white on dark) -->
  <text x="110" y="64" font-family="Inter, system-ui, sans-serif" font-size="42" font-weight="700" fill="#FFFFFF" letter-spacing="-0.5">Invent</text>
  <!-- Text: AI -->
  <text x="270" y="64" font-family="Inter, system-ui, sans-serif" font-size="42" font-weight="700" fill="#2563EB" letter-spacing="-0.5">AI</text>
  <!-- Text: /o -->
  <text x="330" y="64" font-family="Inter, system-ui, sans-serif" font-size="42" font-weight="700" fill="#14B8A6" letter-spacing="-0.5">/o</text>
</svg>