<svg xmlns="http://www.w3.org/2000/svg" viewBox="0 0 512 512" width="512" height="512">
  <!-- Hexagon background -->
  <path d="M256 20 L462 148 L462 364 L256 492 L50 364 L50 148 Z"
        fill="#2563EB" stroke="none"/>
  <!-- Hexagon inner lighter area -->
  <path d="M256 60 L422 168 L422 344 L256 452 L90 344 L90 168 Z"
        fill="#3B82F6" stroke="none"/>
  <!-- Cube - top face -->
  <path d="M256 140 L360 200 L256 260 L152 200 Z"
        fill="#93C5FD" stroke="none"/>
  <!-- Cube - left face -->
  <path d="M152 200 L256 260 L256 370 L152 310 Z"
        fill="#2563EB" stroke="none"/>
  <!-- Cube - right face -->
  <path d="M360 200 L256 260 L256 370 L360 310 Z"
        fill="#1D4ED8" stroke="none"/>
  <!-- Cube edges -->
  <path d="M256 140 L360 200 L256 260 L152 200 Z"
        fill="none" stroke="#FFFFFF" stroke-width="2" stroke-opacity="0.3"/>
  <path d="M152 200 L256 260 L256 370 L152 310 Z"
        fill="none" stroke="#FFFFFF" stroke-width="2" stroke-opacity="0.2"/>
  <path d="M360 200 L256 260 L256 370 L360 310 Z"
        fill="none" stroke="#FFFFFF" stroke-width="2" stroke-opacity="0.2"/>
  <!-- Teal circuit node on cube -->
  <circle cx="310" cy="280" r="16" fill="#14B8A6"/>
  <circle cx="310" cy="280" r="7" fill="#FFFFFF"/>
  <!-- Teal circuit line from node -->
  <line x1="310" y1="264" x2="310" y2="230" stroke="#14B8A6" stroke-width="4" stroke-linecap="round"/>
  <line x1="310" y1="230" x2="340" y2="215" stroke="#14B8A6" stroke-width="4" stroke-linecap="round"/>
  <circle cx="340" cy="215" r="6" fill="#14B8A6"/>
</svg>